<svg xmlns="http://www.w3.org/2000/svg" width="720" height="666" viewBox="0 0 720 666" font-family="Helvetica, Arial, sans-serif">
<rect width="100%" height="100%" fill="#ffffff"/>
<text x="16" y="28" font-size="15" font-weight="700" fill="#111">Requested / control genes on official 10x Xenium lung panels</text>
<text x="16" y="48" font-size="11" fill="#444">Green = on panel (gene target). Gray = absent. Official 10x gene_panel.json.</text>
<rect x="16" y="58" width="12" height="12" fill="#1b7f4a" stroke="#0f5132"/>
<text x="32" y="68" font-size="11" fill="#222">present</text>
<rect x="96" y="58" width="12" height="12" fill="#e9ecef" stroke="#adb5bd"/>
<text x="112" y="68" font-size="11" fill="#222">absent</text>
<text x="153.0" y="162.0" font-size="10" fill="#222" text-anchor="end" transform="rotate(-60 153.0 162.0)">Lung base v1.1 (289)</text>
<text x="199.0" y="162.0" font-size="10" fill="#222" text-anchor="end" transform="rotate(-60 199.0 162.0)">Lung preview base (292)</text>
<text x="245.0" y="162.0" font-size="10" fill="#222" text-anchor="end" transform="rotate(-60 245.0 162.0)">Lung preview +100 add-on</text>
<text x="291.0" y="162.0" font-size="10" fill="#222" text-anchor="end" transform="rotate(-60 291.0 162.0)">Multi-tissue 377</text>
<text x="337.0" y="162.0" font-size="10" fill="#222" text-anchor="end" transform="rotate(-60 337.0 162.0)">IO 380 + add-on A</text>
<text x="383.0" y="162.0" font-size="10" fill="#222" text-anchor="end" transform="rotate(-60 383.0 162.0)">Prime 5K (5001)</text>
<text x="122" y="186.8" font-size="11" text-anchor="end" fill="#111">CLDN4</text>
<rect x="132" y="172" width="42" height="20" rx="3" fill="#e9ecef" stroke="#adb5bd"/>
<text x="153.0" y="186.3" font-size="10" text-anchor="middle" fill="#6c757d">—</text>
<rect x="178" y="172" width="42" height="20" rx="3" fill="#e9ecef" stroke="#adb5bd"/>
<text x="199.0" y="186.3" font-size="10" text-anchor="middle" fill="#6c757d">—</text>
<rect x="224" y="172" width="42" height="20" rx="3" fill="#e9ecef" stroke="#adb5bd"/>
<text x="245.0" y="186.3" font-size="10" text-anchor="middle" fill="#6c757d">—</text>
<rect x="270" y="172" width="42" height="20" rx="3" fill="#e9ecef" stroke="#adb5bd"/>
<text x="291.0" y="186.3" font-size="10" text-anchor="middle" fill="#6c757d">—</text>
<rect x="316" y="172" width="42" height="20" rx="3" fill="#e9ecef" stroke="#adb5bd"/>
<text x="337.0" y="186.3" font-size="10" text-anchor="middle" fill="#6c757d">—</text>
<rect x="362" y="172" width="42" height="20" rx="3" fill="#e9ecef" stroke="#adb5bd"/>
<text x="383.0" y="186.3" font-size="10" text-anchor="middle" fill="#6c757d">—</text>
<text x="122" y="210.8" font-size="11" text-anchor="end" fill="#111">CLDN1</text>
<rect x="132" y="196" width="42" height="20" rx="3" fill="#e9ecef" stroke="#adb5bd"/>
<text x="153.0" y="210.3" font-size="10" text-anchor="middle" fill="#6c757d">—</text>
<rect x="178" y="196" width="42" height="20" rx="3" fill="#e9ecef" stroke="#adb5bd"/>
<text x="199.0" y="210.3" font-size="10" text-anchor="middle" fill="#6c757d">—</text>
<rect x="224" y="196" width="42" height="20" rx="3" fill="#e9ecef" stroke="#adb5bd"/>
<text x="245.0" y="210.3" font-size="10" text-anchor="middle" fill="#6c757d">—</text>
<rect x="270" y="196" width="42" height="20" rx="3" fill="#e9ecef" stroke="#adb5bd"/>
<text x="291.0" y="210.3" font-size="10" text-anchor="middle" fill="#6c757d">—</text>
<rect x="316" y="196" width="42" height="20" rx="3" fill="#e9ecef" stroke="#adb5bd"/>
<text x="337.0" y="210.3" font-size="10" text-anchor="middle" fill="#6c757d">—</text>
<rect x="362" y="196" width="42" height="20" rx="3" fill="#1b7f4a" stroke="#0f5132"/>
<text x="383.0" y="210.3" font-size="10" text-anchor="middle" fill="#fff">Y</text>
<text x="122" y="234.8" font-size="11" text-anchor="end" fill="#111">CLDN3</text>
<rect x="132" y="220" width="42" height="20" rx="3" fill="#e9ecef" stroke="#adb5bd"/>
<text x="153.0" y="234.3" font-size="10" text-anchor="middle" fill="#6c757d">—</text>
<rect x="178" y="220" width="42" height="20" rx="3" fill="#e9ecef" stroke="#adb5bd"/>
<text x="199.0" y="234.3" font-size="10" text-anchor="middle" fill="#6c757d">—</text>
<rect x="224" y="220" width="42" height="20" rx="3" fill="#e9ecef" stroke="#adb5bd"/>
<text x="245.0" y="234.3" font-size="10" text-anchor="middle" fill="#6c757d">—</text>
<rect x="270" y="220" width="42" height="20" rx="3" fill="#e9ecef" stroke="#adb5bd"/>
<text x="291.0" y="234.3" font-size="10" text-anchor="middle" fill="#6c757d">—</text>
<rect x="316" y="220" width="42" height="20" rx="3" fill="#e9ecef" stroke="#adb5bd"/>
<text x="337.0" y="234.3" font-size="10" text-anchor="middle" fill="#6c757d">—</text>
<rect x="362" y="220" width="42" height="20" rx="3" fill="#e9ecef" stroke="#adb5bd"/>
<text x="383.0" y="234.3" font-size="10" text-anchor="middle" fill="#6c757d">—</text>
<text x="122" y="258.8" font-size="11" text-anchor="end" fill="#111">CLDN5</text>
<rect x="132" y="244" width="42" height="20" rx="3" fill="#1b7f4a" stroke="#0f5132"/>
<text x="153.0" y="258.3" font-size="10" text-anchor="middle" fill="#fff">Y</text>
<rect x="178" y="244" width="42" height="20" rx="3" fill="#1b7f4a" stroke="#0f5132"/>
<text x="199.0" y="258.3" font-size="10" text-anchor="middle" fill="#fff">Y</text>
<rect x="224" y="244" width="42" height="20" rx="3" fill="#e9ecef" stroke="#adb5bd"/>
<text x="245.0" y="258.3" font-size="10" text-anchor="middle" fill="#6c757d">—</text>
<rect x="270" y="244" width="42" height="20" rx="3" fill="#e9ecef" stroke="#adb5bd"/>
<text x="291.0" y="258.3" font-size="10" text-anchor="middle" fill="#6c757d">—</text>
<rect x="316" y="244" width="42" height="20" rx="3" fill="#e9ecef" stroke="#adb5bd"/>
<text x="337.0" y="258.3" font-size="10" text-anchor="middle" fill="#6c757d">—</text>
<rect x="362" y="244" width="42" height="20" rx="3" fill="#1b7f4a" stroke="#0f5132"/>
<text x="383.0" y="258.3" font-size="10" text-anchor="middle" fill="#fff">Y</text>
<text x="122" y="282.8" font-size="11" text-anchor="end" fill="#111">CLDN7</text>
<rect x="132" y="268" width="42" height="20" rx="3" fill="#e9ecef" stroke="#adb5bd"/>
<text x="153.0" y="282.3" font-size="10" text-anchor="middle" fill="#6c757d">—</text>
<rect x="178" y="268" width="42" height="20" rx="3" fill="#e9ecef" stroke="#adb5bd"/>
<text x="199.0" y="282.3" font-size="10" text-anchor="middle" fill="#6c757d">—</text>
<rect x="224" y="268" width="42" height="20" rx="3" fill="#e9ecef" stroke="#adb5bd"/>
<text x="245.0" y="282.3" font-size="10" text-anchor="middle" fill="#6c757d">—</text>
<rect x="270" y="268" width="42" height="20" rx="3" fill="#e9ecef" stroke="#adb5bd"/>
<text x="291.0" y="282.3" font-size="10" text-anchor="middle" fill="#6c757d">—</text>
<rect x="316" y="268" width="42" height="20" rx="3" fill="#e9ecef" stroke="#adb5bd"/>
<text x="337.0" y="282.3" font-size="10" text-anchor="middle" fill="#6c757d">—</text>
<rect x="362" y="268" width="42" height="20" rx="3" fill="#1b7f4a" stroke="#0f5132"/>
<text x="383.0" y="282.3" font-size="10" text-anchor="middle" fill="#fff">Y</text>
<text x="122" y="306.8" font-size="11" text-anchor="end" fill="#111">CLDN18</text>
<rect x="132" y="292" width="42" height="20" rx="3" fill="#e9ecef" stroke="#adb5bd"/>
<text x="153.0" y="306.3" font-size="10" text-anchor="middle" fill="#6c757d">—</text>
<rect x="178" y="292" width="42" height="20" rx="3" fill="#e9ecef" stroke="#adb5bd"/>
<text x="199.0" y="306.3" font-size="10" text-anchor="middle" fill="#6c757d">—</text>
<rect x="224" y="292" width="42" height="20" rx="3" fill="#e9ecef" stroke="#adb5bd"/>
<text x="245.0" y="306.3" font-size="10" text-anchor="middle" fill="#6c757d">—</text>
<rect x="270" y="292" width="42" height="20" rx="3" fill="#e9ecef" stroke="#adb5bd"/>
<text x="291.0" y="306.3" font-size="10" text-anchor="middle" fill="#6c757d">—</text>
<rect x="316" y="292" width="42" height="20" rx="3" fill="#e9ecef" stroke="#adb5bd"/>
<text x="337.0" y="306.3" font-size="10" text-anchor="middle" fill="#6c757d">—</text>
<rect x="362" y="292" width="42" height="20" rx="3" fill="#1b7f4a" stroke="#0f5132"/>
<text x="383.0" y="306.3" font-size="10" text-anchor="middle" fill="#fff">Y</text>
<text x="122" y="330.8" font-size="11" text-anchor="end" fill="#111">CD8A</text>
<rect x="132" y="316" width="42" height="20" rx="3" fill="#1b7f4a" stroke="#0f5132"/>
<text x="153.0" y="330.3" font-size="10" text-anchor="middle" fill="#fff">Y</text>
<rect x="178" y="316" width="42" height="20" rx="3" fill="#1b7f4a" stroke="#0f5132"/>
<text x="199.0" y="330.3" font-size="10" text-anchor="middle" fill="#fff">Y</text>
<rect x="224" y="316" width="42" height="20" rx="3" fill="#e9ecef" stroke="#adb5bd"/>
<text x="245.0" y="330.3" font-size="10" text-anchor="middle" fill="#6c757d">—</text>
<rect x="270" y="316" width="42" height="20" rx="3" fill="#1b7f4a" stroke="#0f5132"/>
<text x="291.0" y="330.3" font-size="10" text-anchor="middle" fill="#fff">Y</text>
<rect x="316" y="316" width="42" height="20" rx="3" fill="#1b7f4a" stroke="#0f5132"/>
<text x="337.0" y="330.3" font-size="10" text-anchor="middle" fill="#fff">Y</text>
<rect x="362" y="316" width="42" height="20" rx="3" fill="#1b7f4a" stroke="#0f5132"/>
<text x="383.0" y="330.3" font-size="10" text-anchor="middle" fill="#fff">Y</text>
<text x="122" y="354.8" font-size="11" text-anchor="end" fill="#111">CD8B</text>
<rect x="132" y="340" width="42" height="20" rx="3" fill="#1b7f4a" stroke="#0f5132"/>
<text x="153.0" y="354.3" font-size="10" text-anchor="middle" fill="#fff">Y</text>
<rect x="178" y="340" width="42" height="20" rx="3" fill="#1b7f4a" stroke="#0f5132"/>
<text x="199.0" y="354.3" font-size="10" text-anchor="middle" fill="#fff">Y</text>
<rect x="224" y="340" width="42" height="20" rx="3" fill="#e9ecef" stroke="#adb5bd"/>
<text x="245.0" y="354.3" font-size="10" text-anchor="middle" fill="#6c757d">—</text>
<rect x="270" y="340" width="42" height="20" rx="3" fill="#e9ecef" stroke="#adb5bd"/>
<text x="291.0" y="354.3" font-size="10" text-anchor="middle" fill="#6c757d">—</text>
<rect x="316" y="340" width="42" height="20" rx="3" fill="#1b7f4a" stroke="#0f5132"/>
<text x="337.0" y="354.3" font-size="10" text-anchor="middle" fill="#fff">Y</text>
<rect x="362" y="340" width="42" height="20" rx="3" fill="#1b7f4a" stroke="#0f5132"/>
<text x="383.0" y="354.3" font-size="10" text-anchor="middle" fill="#fff">Y</text>
<text x="122" y="378.8" font-size="11" text-anchor="end" fill="#111">CD3D</text>
<rect x="132" y="364" width="42" height="20" rx="3" fill="#1b7f4a" stroke="#0f5132"/>
<text x="153.0" y="378.3" font-size="10" text-anchor="middle" fill="#fff">Y</text>
<rect x="178" y="364" width="42" height="20" rx="3" fill="#1b7f4a" stroke="#0f5132"/>
<text x="199.0" y="378.3" font-size="10" text-anchor="middle" fill="#fff">Y</text>
<rect x="224" y="364" width="42" height="20" rx="3" fill="#e9ecef" stroke="#adb5bd"/>
<text x="245.0" y="378.3" font-size="10" text-anchor="middle" fill="#6c757d">—</text>
<rect x="270" y="364" width="42" height="20" rx="3" fill="#1b7f4a" stroke="#0f5132"/>
<text x="291.0" y="378.3" font-size="10" text-anchor="middle" fill="#fff">Y</text>
<rect x="316" y="364" width="42" height="20" rx="3" fill="#1b7f4a" stroke="#0f5132"/>
<text x="337.0" y="378.3" font-size="10" text-anchor="middle" fill="#fff">Y</text>
<rect x="362" y="364" width="42" height="20" rx="3" fill="#e9ecef" stroke="#adb5bd"/>
<text x="383.0" y="378.3" font-size="10" text-anchor="middle" fill="#6c757d">—</text>
<text x="122" y="402.8" font-size="11" text-anchor="end" fill="#111">CD3E</text>
<rect x="132" y="388" width="42" height="20" rx="3" fill="#1b7f4a" stroke="#0f5132"/>
<text x="153.0" y="402.3" font-size="10" text-anchor="middle" fill="#fff">Y</text>
<rect x="178" y="388" width="42" height="20" rx="3" fill="#1b7f4a" stroke="#0f5132"/>
<text x="199.0" y="402.3" font-size="10" text-anchor="middle" fill="#fff">Y</text>
<rect x="224" y="388" width="42" height="20" rx="3" fill="#e9ecef" stroke="#adb5bd"/>
<text x="245.0" y="402.3" font-size="10" text-anchor="middle" fill="#6c757d">—</text>
<rect x="270" y="388" width="42" height="20" rx="3" fill="#1b7f4a" stroke="#0f5132"/>
<text x="291.0" y="402.3" font-size="10" text-anchor="middle" fill="#fff">Y</text>
<rect x="316" y="388" width="42" height="20" rx="3" fill="#1b7f4a" stroke="#0f5132"/>
<text x="337.0" y="402.3" font-size="10" text-anchor="middle" fill="#fff">Y</text>
<rect x="362" y="388" width="42" height="20" rx="3" fill="#1b7f4a" stroke="#0f5132"/>
<text x="383.0" y="402.3" font-size="10" text-anchor="middle" fill="#fff">Y</text>
<text x="122" y="426.8" font-size="11" text-anchor="end" fill="#111">CD3G</text>
<rect x="132" y="412" width="42" height="20" rx="3" fill="#e9ecef" stroke="#adb5bd"/>
<text x="153.0" y="426.3" font-size="10" text-anchor="middle" fill="#6c757d">—</text>
<rect x="178" y="412" width="42" height="20" rx="3" fill="#e9ecef" stroke="#adb5bd"/>
<text x="199.0" y="426.3" font-size="10" text-anchor="middle" fill="#6c757d">—</text>
<rect x="224" y="412" width="42" height="20" rx="3" fill="#e9ecef" stroke="#adb5bd"/>
<text x="245.0" y="426.3" font-size="10" text-anchor="middle" fill="#6c757d">—</text>
<rect x="270" y="412" width="42" height="20" rx="3" fill="#e9ecef" stroke="#adb5bd"/>
<text x="291.0" y="426.3" font-size="10" text-anchor="middle" fill="#6c757d">—</text>
<rect x="316" y="412" width="42" height="20" rx="3" fill="#e9ecef" stroke="#adb5bd"/>
<text x="337.0" y="426.3" font-size="10" text-anchor="middle" fill="#6c757d">—</text>
<rect x="362" y="412" width="42" height="20" rx="3" fill="#1b7f4a" stroke="#0f5132"/>
<text x="383.0" y="426.3" font-size="10" text-anchor="middle" fill="#fff">Y</text>
<text x="122" y="450.8" font-size="11" text-anchor="end" fill="#111">KRT8</text>
<rect x="132" y="436" width="42" height="20" rx="3" fill="#e9ecef" stroke="#adb5bd"/>
<text x="153.0" y="450.3" font-size="10" text-anchor="middle" fill="#6c757d">—</text>
<rect x="178" y="436" width="42" height="20" rx="3" fill="#e9ecef" stroke="#adb5bd"/>
<text x="199.0" y="450.3" font-size="10" text-anchor="middle" fill="#6c757d">—</text>
<rect x="224" y="436" width="42" height="20" rx="3" fill="#e9ecef" stroke="#adb5bd"/>
<text x="245.0" y="450.3" font-size="10" text-anchor="middle" fill="#6c757d">—</text>
<rect x="270" y="436" width="42" height="20" rx="3" fill="#e9ecef" stroke="#adb5bd"/>
<text x="291.0" y="450.3" font-size="10" text-anchor="middle" fill="#6c757d">—</text>
<rect x="316" y="436" width="42" height="20" rx="3" fill="#e9ecef" stroke="#adb5bd"/>
<text x="337.0" y="450.3" font-size="10" text-anchor="middle" fill="#6c757d">—</text>
<rect x="362" y="436" width="42" height="20" rx="3" fill="#e9ecef" stroke="#adb5bd"/>
<text x="383.0" y="450.3" font-size="10" text-anchor="middle" fill="#6c757d">—</text>
<text x="122" y="474.8" font-size="11" text-anchor="end" fill="#111">KRT18</text>
<rect x="132" y="460" width="42" height="20" rx="3" fill="#e9ecef" stroke="#adb5bd"/>
<text x="153.0" y="474.3" font-size="10" text-anchor="middle" fill="#6c757d">—</text>
<rect x="178" y="460" width="42" height="20" rx="3" fill="#e9ecef" stroke="#adb5bd"/>
<text x="199.0" y="474.3" font-size="10" text-anchor="middle" fill="#6c757d">—</text>
<rect x="224" y="460" width="42" height="20" rx="3" fill="#e9ecef" stroke="#adb5bd"/>
<text x="245.0" y="474.3" font-size="10" text-anchor="middle" fill="#6c757d">—</text>
<rect x="270" y="460" width="42" height="20" rx="3" fill="#e9ecef" stroke="#adb5bd"/>
<text x="291.0" y="474.3" font-size="10" text-anchor="middle" fill="#6c757d">—</text>
<rect x="316" y="460" width="42" height="20" rx="3" fill="#e9ecef" stroke="#adb5bd"/>
<text x="337.0" y="474.3" font-size="10" text-anchor="middle" fill="#6c757d">—</text>
<rect x="362" y="460" width="42" height="20" rx="3" fill="#e9ecef" stroke="#adb5bd"/>
<text x="383.0" y="474.3" font-size="10" text-anchor="middle" fill="#6c757d">—</text>
<text x="122" y="498.8" font-size="11" text-anchor="end" fill="#111">KRT7</text>
<rect x="132" y="484" width="42" height="20" rx="3" fill="#1b7f4a" stroke="#0f5132"/>
<text x="153.0" y="498.3" font-size="10" text-anchor="middle" fill="#fff">Y</text>
<rect x="178" y="484" width="42" height="20" rx="3" fill="#1b7f4a" stroke="#0f5132"/>
<text x="199.0" y="498.3" font-size="10" text-anchor="middle" fill="#fff">Y</text>
<rect x="224" y="484" width="42" height="20" rx="3" fill="#e9ecef" stroke="#adb5bd"/>
<text x="245.0" y="498.3" font-size="10" text-anchor="middle" fill="#6c757d">—</text>
<rect x="270" y="484" width="42" height="20" rx="3" fill="#1b7f4a" stroke="#0f5132"/>
<text x="291.0" y="498.3" font-size="10" text-anchor="middle" fill="#fff">Y</text>
<rect x="316" y="484" width="42" height="20" rx="3" fill="#e9ecef" stroke="#adb5bd"/>
<text x="337.0" y="498.3" font-size="10" text-anchor="middle" fill="#6c757d">—</text>
<rect x="362" y="484" width="42" height="20" rx="3" fill="#e9ecef" stroke="#adb5bd"/>
<text x="383.0" y="498.3" font-size="10" text-anchor="middle" fill="#6c757d">—</text>
<text x="122" y="522.8" font-size="11" text-anchor="end" fill="#111">KRT5</text>
<rect x="132" y="508" width="42" height="20" rx="3" fill="#e9ecef" stroke="#adb5bd"/>
<text x="153.0" y="522.3" font-size="10" text-anchor="middle" fill="#6c757d">—</text>
<rect x="178" y="508" width="42" height="20" rx="3" fill="#1b7f4a" stroke="#0f5132"/>
<text x="199.0" y="522.3" font-size="10" text-anchor="middle" fill="#fff">Y</text>
<rect x="224" y="508" width="42" height="20" rx="3" fill="#e9ecef" stroke="#adb5bd"/>
<text x="245.0" y="522.3" font-size="10" text-anchor="middle" fill="#6c757d">—</text>
<rect x="270" y="508" width="42" height="20" rx="3" fill="#e9ecef" stroke="#adb5bd"/>
<text x="291.0" y="522.3" font-size="10" text-anchor="middle" fill="#6c757d">—</text>
<rect x="316" y="508" width="42" height="20" rx="3" fill="#e9ecef" stroke="#adb5bd"/>
<text x="337.0" y="522.3" font-size="10" text-anchor="middle" fill="#6c757d">—</text>
<rect x="362" y="508" width="42" height="20" rx="3" fill="#e9ecef" stroke="#adb5bd"/>
<text x="383.0" y="522.3" font-size="10" text-anchor="middle" fill="#6c757d">—</text>
<text x="122" y="546.8" font-size="11" text-anchor="end" fill="#111">EPCAM</text>
<rect x="132" y="532" width="42" height="20" rx="3" fill="#1b7f4a" stroke="#0f5132"/>
<text x="153.0" y="546.3" font-size="10" text-anchor="middle" fill="#fff">Y</text>
<rect x="178" y="532" width="42" height="20" rx="3" fill="#1b7f4a" stroke="#0f5132"/>
<text x="199.0" y="546.3" font-size="10" text-anchor="middle" fill="#fff">Y</text>
<rect x="224" y="532" width="42" height="20" rx="3" fill="#e9ecef" stroke="#adb5bd"/>
<text x="245.0" y="546.3" font-size="10" text-anchor="middle" fill="#6c757d">—</text>
<rect x="270" y="532" width="42" height="20" rx="3" fill="#1b7f4a" stroke="#0f5132"/>
<text x="291.0" y="546.3" font-size="10" text-anchor="middle" fill="#fff">Y</text>
<rect x="316" y="532" width="42" height="20" rx="3" fill="#1b7f4a" stroke="#0f5132"/>
<text x="337.0" y="546.3" font-size="10" text-anchor="middle" fill="#fff">Y</text>
<rect x="362" y="532" width="42" height="20" rx="3" fill="#1b7f4a" stroke="#0f5132"/>
<text x="383.0" y="546.3" font-size="10" text-anchor="middle" fill="#fff">Y</text>
<text x="122" y="570.8" font-size="11" text-anchor="end" fill="#111">TACSTD2</text>
<rect x="132" y="556" width="42" height="20" rx="3" fill="#1b7f4a" stroke="#0f5132"/>
<text x="153.0" y="570.3" font-size="10" text-anchor="middle" fill="#fff">Y</text>
<rect x="178" y="556" width="42" height="20" rx="3" fill="#1b7f4a" stroke="#0f5132"/>
<text x="199.0" y="570.3" font-size="10" text-anchor="middle" fill="#fff">Y</text>
<rect x="224" y="556" width="42" height="20" rx="3" fill="#e9ecef" stroke="#adb5bd"/>
<text x="245.0" y="570.3" font-size="10" text-anchor="middle" fill="#6c757d">—</text>
<rect x="270" y="556" width="42" height="20" rx="3" fill="#e9ecef" stroke="#adb5bd"/>
<text x="291.0" y="570.3" font-size="10" text-anchor="middle" fill="#6c757d">—</text>
<rect x="316" y="556" width="42" height="20" rx="3" fill="#e9ecef" stroke="#adb5bd"/>
<text x="337.0" y="570.3" font-size="10" text-anchor="middle" fill="#6c757d">—</text>
<rect x="362" y="556" width="42" height="20" rx="3" fill="#e9ecef" stroke="#adb5bd"/>
<text x="383.0" y="570.3" font-size="10" text-anchor="middle" fill="#6c757d">—</text>
<text x="122" y="594.8" font-size="11" text-anchor="end" fill="#111">PTPRC</text>
<rect x="132" y="580" width="42" height="20" rx="3" fill="#e9ecef" stroke="#adb5bd"/>
<text x="153.0" y="594.3" font-size="10" text-anchor="middle" fill="#6c757d">—</text>
<rect x="178" y="580" width="42" height="20" rx="3" fill="#e9ecef" stroke="#adb5bd"/>
<text x="199.0" y="594.3" font-size="10" text-anchor="middle" fill="#6c757d">—</text>
<rect x="224" y="580" width="42" height="20" rx="3" fill="#e9ecef" stroke="#adb5bd"/>
<text x="245.0" y="594.3" font-size="10" text-anchor="middle" fill="#6c757d">—</text>
<rect x="270" y="580" width="42" height="20" rx="3" fill="#1b7f4a" stroke="#0f5132"/>
<text x="291.0" y="594.3" font-size="10" text-anchor="middle" fill="#fff">Y</text>
<rect x="316" y="580" width="42" height="20" rx="3" fill="#1b7f4a" stroke="#0f5132"/>
<text x="337.0" y="594.3" font-size="10" text-anchor="middle" fill="#fff">Y</text>
<rect x="362" y="580" width="42" height="20" rx="3" fill="#e9ecef" stroke="#adb5bd"/>
<text x="383.0" y="594.3" font-size="10" text-anchor="middle" fill="#6c757d">—</text>
<text x="122" y="618.8" font-size="11" text-anchor="end" fill="#111">NKX2-1</text>
<rect x="132" y="604" width="42" height="20" rx="3" fill="#e9ecef" stroke="#adb5bd"/>
<text x="153.0" y="618.3" font-size="10" text-anchor="middle" fill="#6c757d">—</text>
<rect x="178" y="604" width="42" height="20" rx="3" fill="#e9ecef" stroke="#adb5bd"/>
<text x="199.0" y="618.3" font-size="10" text-anchor="middle" fill="#6c757d">—</text>
<rect x="224" y="604" width="42" height="20" rx="3" fill="#e9ecef" stroke="#adb5bd"/>
<text x="245.0" y="618.3" font-size="10" text-anchor="middle" fill="#6c757d">—</text>
<rect x="270" y="604" width="42" height="20" rx="3" fill="#e9ecef" stroke="#adb5bd"/>
<text x="291.0" y="618.3" font-size="10" text-anchor="middle" fill="#6c757d">—</text>
<rect x="316" y="604" width="42" height="20" rx="3" fill="#e9ecef" stroke="#adb5bd"/>
<text x="337.0" y="618.3" font-size="10" text-anchor="middle" fill="#6c757d">—</text>
<rect x="362" y="604" width="42" height="20" rx="3" fill="#1b7f4a" stroke="#0f5132"/>
<text x="383.0" y="618.3" font-size="10" text-anchor="middle" fill="#fff">Y</text>
</svg>
